<svg id="visual" viewBox="0 0 900 600" width="900" height="600" xmlns="http://www.w3.org/2000/svg" xmlns:xlink="http://www.w3.org/1999/xlink" version="1.1"><g stroke-width="1" stroke-linejoin="bevel"><path d="M374 344L390 404L541 315Z" fill="#080808" stroke="#080808"></path><path d="M390 404L480 469L541 315Z" fill="#253442" stroke="#253442"></path><path d="M480 469L712 332L541 315Z" fill="#131619" stroke="#131619"></path><path d="M363 600L508 600L480 469Z" fill="#2b3f51" stroke="#2b3f51"></path><path d="M480 469L763 465L712 332Z" fill="#080808" stroke="#080808"></path><path d="M374 344L223 461L390 404Z" fill="#3c6281" stroke="#3c6281"></path><path d="M390 404L363 600L480 469Z" fill="#426e92" stroke="#426e92"></path><path d="M223 461L363 600L390 404Z" fill="#253442" stroke="#253442"></path><path d="M659 113L592 104L541 315Z" fill="#080808" stroke="#080808"></path><path d="M541 315L316 103L374 344Z" fill="#487aa3" stroke="#487aa3"></path><path d="M374 344L137 305L223 461Z" fill="#131619" stroke="#131619"></path><path d="M592 104L316 103L541 315Z" fill="#3c6281" stroke="#3c6281"></path><path d="M712 332L659 113L541 315Z" fill="#487aa3" stroke="#487aa3"></path><path d="M508 600L662 600L480 469Z" fill="#253442" stroke="#253442"></path><path d="M662 600L763 465L480 469Z" fill="#1f2a34" stroke="#1f2a34"></path><path d="M900 0L687 0L659 113Z" fill="#131619" stroke="#131619"></path><path d="M316 103L137 305L374 344Z" fill="#080808" stroke="#080808"></path><path d="M687 0L558 0L592 104Z" fill="#191f26" stroke="#191f26"></path><path d="M592 104L558 0L316 103Z" fill="#3c6281" stroke="#3c6281"></path><path d="M558 0L330 0L316 103Z" fill="#314a61" stroke="#314a61"></path><path d="M316 103L146 86L137 305Z" fill="#2b3f51" stroke="#2b3f51"></path><path d="M0 431L141 600L223 461Z" fill="#3c6281" stroke="#3c6281"></path><path d="M223 461L141 600L363 600Z" fill="#1f2a34" stroke="#1f2a34"></path><path d="M179 0L146 86L316 103Z" fill="#314a61" stroke="#314a61"></path><path d="M900 194L659 113L712 332Z" fill="#3c6281" stroke="#3c6281"></path><path d="M659 113L687 0L592 104Z" fill="#191f26" stroke="#191f26"></path><path d="M763 465L900 285L712 332Z" fill="#375671" stroke="#375671"></path><path d="M900 469L900 285L763 465Z" fill="#191f26" stroke="#191f26"></path><path d="M330 0L179 0L316 103Z" fill="#131619" stroke="#131619"></path><path d="M900 600L900 469L763 465Z" fill="#191f26" stroke="#191f26"></path><path d="M0 208L137 305L146 86Z" fill="#131619" stroke="#131619"></path><path d="M0 208L0 295L137 305Z" fill="#2b3f51" stroke="#2b3f51"></path><path d="M137 305L0 431L223 461Z" fill="#375671" stroke="#375671"></path><path d="M900 285L900 194L712 332Z" fill="#426e92" stroke="#426e92"></path><path d="M0 295L0 431L137 305Z" fill="#487aa3" stroke="#487aa3"></path><path d="M0 0L0 208L146 86Z" fill="#426e92" stroke="#426e92"></path><path d="M662 600L900 600L763 465Z" fill="#314a61" stroke="#314a61"></path><path d="M0 431L0 600L141 600Z" fill="#1f2a34" stroke="#1f2a34"></path><path d="M900 194L900 0L659 113Z" fill="#1f2a34" stroke="#1f2a34"></path><path d="M179 0L0 0L146 86Z" fill="#487aa3" stroke="#487aa3"></path></g></svg>