<svg id="visual" viewBox="0 0 1920 5000" width="1920" height="5000" xmlns="http://www.w3.org/2000/svg" xmlns:xlink="http://www.w3.org/1999/xlink" version="1.1"><rect width="1920" height="5000" fill="#001829"></rect><g><g transform="translate(1270 961)"><path d="M0 -157.7L136.6 -78.8L136.6 78.8L0 157.7L-136.6 78.8L-136.6 -78.8Z" stroke="#297EA6" fill="none" stroke-width="2"></path></g><g transform="translate(269 2790)"><path d="M0 -133L115.2 -66.5L115.2 66.5L0 133L-115.2 66.5L-115.2 -66.5Z" stroke="#297EA6" fill="none" stroke-width="2"></path></g><g transform="translate(819 42)"><path d="M0 -126L109.1 -63L109.1 63L0 126L-109.1 63L-109.1 -63Z" stroke="#297EA6" fill="none" stroke-width="2"></path></g><g transform="translate(360 1257)"><path d="M0 -135L116.9 -67.5L116.9 67.5L0 135L-116.9 67.5L-116.9 -67.5Z" stroke="#297EA6" fill="none" stroke-width="2"></path></g><g transform="translate(1773 780)"><path d="M0 -147L127.3 -73.5L127.3 73.5L0 147L-127.3 73.5L-127.3 -73.5Z" stroke="#297EA6" fill="none" stroke-width="2"></path></g><g transform="translate(611 4749)"><path d="M0 -152L131.6 -76L131.6 76L0 152L-131.6 76L-131.6 -76Z" stroke="#297EA6" fill="none" stroke-width="2"></path></g><g transform="translate(578 3178)"><path d="M0 -132L114.3 -66L114.3 66L0 132L-114.3 66L-114.3 -66Z" stroke="#297EA6" fill="none" stroke-width="2"></path></g><g transform="translate(688 2705)"><path d="M0 -133L115.2 -66.5L115.2 66.5L0 133L-115.2 66.5L-115.2 -66.5Z" stroke="#297EA6" fill="none" stroke-width="2"></path></g><g transform="translate(1892 1198)"><path d="M0 -151L130.8 -75.5L130.8 75.5L0 151L-130.8 75.5L-130.8 -75.5Z" stroke="#297EA6" fill="none" stroke-width="2"></path></g><g transform="translate(1547 4442)"><path d="M0 -136L117.8 -68L117.8 68L0 136L-117.8 68L-117.8 -68Z" stroke="#297EA6" fill="none" stroke-width="2"></path></g><g transform="translate(317 2249)"><path d="M0 -149L129 -74.5L129 74.5L0 149L-129 74.5L-129 -74.5Z" stroke="#297EA6" fill="none" stroke-width="2"></path></g><g transform="translate(490 1720)"><path d="M0 -129L111.7 -64.5L111.7 64.5L0 129L-111.7 64.5L-111.7 -64.5Z" stroke="#297EA6" fill="none" stroke-width="2"></path></g><g transform="translate(1166 2543)"><path d="M0 -148L128.2 -74L128.2 74L0 148L-128.2 74L-128.2 -74Z" stroke="#297EA6" fill="none" stroke-width="2"></path></g><g transform="translate(1839 2690)"><path d="M0 -152L131.6 -76L131.6 76L0 152L-131.6 76L-131.6 -76Z" stroke="#297EA6" fill="none" stroke-width="2"></path></g><g transform="translate(816 4444)"><path d="M0 -123L106.5 -61.5L106.5 61.5L0 123L-106.5 61.5L-106.5 -61.5Z" stroke="#297EA6" fill="none" stroke-width="2"></path></g><g transform="translate(1582 1495)"><path d="M0 -125L108.3 -62.5L108.3 62.5L0 125L-108.3 62.5L-108.3 -62.5Z" stroke="#297EA6" fill="none" stroke-width="2"></path></g><g transform="translate(836 2016)"><path d="M0 -145L125.6 -72.5L125.6 72.5L0 145L-125.6 72.5L-125.6 -72.5Z" stroke="#297EA6" fill="none" stroke-width="2"></path></g><g transform="translate(1830 1721)"><path d="M0 -152L131.6 -76L131.6 76L0 152L-131.6 76L-131.6 -76Z" stroke="#297EA6" fill="none" stroke-width="2"></path></g><g transform="translate(249 3230)"><path d="M0 -140L121.2 -70L121.2 70L0 140L-121.2 70L-121.2 -70Z" stroke="#297EA6" fill="none" stroke-width="2"></path></g><g transform="translate(1209 1905)"><path d="M0 -136L117.8 -68L117.8 68L0 136L-117.8 68L-117.8 -68Z" stroke="#297EA6" fill="none" stroke-width="2"></path></g><g transform="translate(783 694)"><path d="M0 -146L126.4 -73L126.4 73L0 146L-126.4 73L-126.4 -73Z" stroke="#297EA6" fill="none" stroke-width="2"></path></g><g transform="translate(17 2567)"><path d="M0 -155L134.2 -77.5L134.2 77.5L0 155L-134.2 77.5L-134.2 -77.5Z" stroke="#297EA6" fill="none" stroke-width="2"></path></g><g transform="translate(73 4401)"><path d="M0 -156L135.1 -78L135.1 78L0 156L-135.1 78L-135.1 -78Z" stroke="#297EA6" fill="none" stroke-width="2"></path></g><g transform="translate(1892 3757)"><path d="M0 -135L116.9 -67.5L116.9 67.5L0 135L-116.9 67.5L-116.9 -67.5Z" stroke="#297EA6" fill="none" stroke-width="2"></path></g><g transform="translate(1147 4430)"><path d="M0 -124L107.4 -62L107.4 62L0 124L-107.4 62L-107.4 -62Z" stroke="#297EA6" fill="none" stroke-width="2"></path></g><g transform="translate(997 1282)"><path d="M0 -138L119.5 -69L119.5 69L0 138L-119.5 69L-119.5 -69Z" stroke="#297EA6" fill="none" stroke-width="2"></path></g><g transform="translate(99 1953)"><path d="M0 -145L125.6 -72.5L125.6 72.5L0 145L-125.6 72.5L-125.6 -72.5Z" stroke="#297EA6" fill="none" stroke-width="2"></path></g><g transform="translate(1221 37)"><path d="M0 -134L116 -67L116 67L0 134L-116 67L-116 -67Z" stroke="#297EA6" fill="none" stroke-width="2"></path></g><g transform="translate(1198 1526)"><path d="M0 -155L134.2 -77.5L134.2 77.5L0 155L-134.2 77.5L-134.2 -77.5Z" stroke="#297EA6" fill="none" stroke-width="2"></path></g><g transform="translate(1658 3002)"><path d="M0 -121L104.8 -60.5L104.8 60.5L0 121L-104.8 60.5L-104.8 -60.5Z" stroke="#297EA6" fill="none" stroke-width="2"></path></g><g transform="translate(419 3535)"><path d="M0 -140L121.2 -70L121.2 70L0 140L-121.2 70L-121.2 -70Z" stroke="#297EA6" fill="none" stroke-width="2"></path></g><g transform="translate(1805 2177)"><path d="M0 -136L117.8 -68L117.8 68L0 136L-117.8 68L-117.8 -68Z" stroke="#297EA6" fill="none" stroke-width="2"></path></g><g transform="translate(53 3676)"><path d="M0 -144L124.7 -72L124.7 72L0 144L-124.7 72L-124.7 -72Z" stroke="#297EA6" fill="none" stroke-width="2"></path></g><g transform="translate(1786 4077)"><path d="M0 -119L103.1 -59.5L103.1 59.5L0 119L-103.1 59.5L-103.1 -59.5Z" stroke="#297EA6" fill="none" stroke-width="2"></path></g><g transform="translate(303 328)"><path d="M0 -146L126.4 -73L126.4 73L0 146L-126.4 73L-126.4 -73Z" stroke="#297EA6" fill="none" stroke-width="2"></path></g><g transform="translate(244 730)"><path d="M0 -147L127.3 -73.5L127.3 73.5L0 147L-127.3 73.5L-127.3 -73.5Z" stroke="#297EA6" fill="none" stroke-width="2"></path></g><g transform="translate(483 3962)"><path d="M0 -127L110 -63.5L110 63.5L0 127L-110 63.5L-110 -63.5Z" stroke="#297EA6" fill="none" stroke-width="2"></path></g><g transform="translate(925 3729)"><path d="M0 -149L129 -74.5L129 74.5L0 149L-129 74.5L-129 -74.5Z" stroke="#297EA6" fill="none" stroke-width="2"></path></g><g transform="translate(1711 4875)"><path d="M0 -122L105.7 -61L105.7 61L0 122L-105.7 61L-105.7 -61Z" stroke="#297EA6" fill="none" stroke-width="2"></path></g><g transform="translate(1462 3313)"><path d="M0 -139L120.4 -69.5L120.4 69.5L0 139L-120.4 69.5L-120.4 -69.5Z" stroke="#297EA6" fill="none" stroke-width="2"></path></g><g transform="translate(1523 1809)"><path d="M0 -119L103.1 -59.5L103.1 59.5L0 119L-103.1 59.5L-103.1 -59.5Z" stroke="#297EA6" fill="none" stroke-width="2"></path></g><g transform="translate(1260 4104)"><path d="M0 -137L118.6 -68.5L118.6 68.5L0 137L-118.6 68.5L-118.6 -68.5Z" stroke="#297EA6" fill="none" stroke-width="2"></path></g><g transform="translate(1118 4805)"><path d="M0 -153L132.5 -76.5L132.5 76.5L0 153L-132.5 76.5L-132.5 -76.5Z" stroke="#297EA6" fill="none" stroke-width="2"></path></g><g transform="translate(77 4870)"><path d="M0 -140L121.2 -70L121.2 70L0 140L-121.2 70L-121.2 -70Z" stroke="#297EA6" fill="none" stroke-width="2"></path></g><g transform="translate(1558 401)"><path d="M0 -133L115.2 -66.5L115.2 66.5L0 133L-115.2 66.5L-115.2 -66.5Z" stroke="#297EA6" fill="none" stroke-width="2"></path></g></g></svg>