<svg id="visual" viewBox="0 0 900 600" width="900" height="600" xmlns="http://www.w3.org/2000/svg" xmlns:xlink="http://www.w3.org/1999/xlink" version="1.1"><g stroke-width="1" stroke-linejoin="bevel"><path d="M455 209L246 210L443 418Z" fill="#275858" stroke="#275858"></path><path d="M246 210L240 403L443 418Z" fill="#1a3131" stroke="#1a3131"></path><path d="M229 600L456 600L443 418Z" fill="#1a3131" stroke="#1a3131"></path><path d="M443 418L692 376L455 209Z" fill="#1a3131" stroke="#1a3131"></path><path d="M0 424L229 600L240 403Z" fill="#2a6262" stroke="#2a6262"></path><path d="M240 403L229 600L443 418Z" fill="#275858" stroke="#275858"></path><path d="M679 182L473 0L455 209Z" fill="#204444" stroke="#204444"></path><path d="M455 209L473 0L246 210Z" fill="#358c8f" stroke="#358c8f"></path><path d="M473 0L226 0L246 210Z" fill="#307778" stroke="#307778"></path><path d="M246 210L0 207L240 403Z" fill="#244e4e" stroke="#244e4e"></path><path d="M699 600L692 376L443 418Z" fill="#162828" stroke="#162828"></path><path d="M692 376L679 182L455 209Z" fill="#1d3a3a" stroke="#1d3a3a"></path><path d="M226 0L0 207L246 210Z" fill="#162828" stroke="#162828"></path><path d="M0 207L0 424L240 403Z" fill="#1d3a3a" stroke="#1d3a3a"></path><path d="M456 600L699 600L443 418Z" fill="#162828" stroke="#162828"></path><path d="M0 424L0 600L229 600Z" fill="#2d6c6d" stroke="#2d6c6d"></path><path d="M679 182L692 0L473 0Z" fill="#244e4e" stroke="#244e4e"></path><path d="M900 179L692 0L679 182Z" fill="#162828" stroke="#162828"></path><path d="M900 179L679 182L692 376Z" fill="#162828" stroke="#162828"></path><path d="M226 0L0 0L0 207Z" fill="#244e4e" stroke="#244e4e"></path><path d="M699 600L900 398L692 376Z" fill="#204444" stroke="#204444"></path><path d="M900 398L900 179L692 376Z" fill="#307778" stroke="#307778"></path><path d="M699 600L900 600L900 398Z" fill="#328183" stroke="#328183"></path><path d="M900 179L900 0L692 0Z" fill="#307778" stroke="#307778"></path></g></svg>