<svg id="visual" viewBox="0 0 2000 900" width="2000" height="900" xmlns="http://www.w3.org/2000/svg" xmlns:xlink="http://www.w3.org/1999/xlink" version="1.1"><g stroke-width="1" stroke-linejoin="bevel"><path d="M806 579L810 303L392 323Z" fill="#1d243d" stroke="#1d243d"></path><path d="M392 323L432 614L806 579Z" fill="#131621" stroke="#131621"></path><path d="M810 303L428 0L392 323Z" fill="#212c4c" stroke="#212c4c"></path><path d="M776 0L428 0L810 303Z" fill="#151825" stroke="#151825"></path><path d="M0 585L409 900L432 614Z" fill="#192033" stroke="#192033"></path><path d="M432 614L820 900L806 579Z" fill="#181d2f" stroke="#181d2f"></path><path d="M409 900L820 900L432 614Z" fill="#1d243d" stroke="#1d243d"></path><path d="M806 579L1220 571L810 303Z" fill="#161b2a" stroke="#161b2a"></path><path d="M392 323L0 585L432 614Z" fill="#1d243d" stroke="#1d243d"></path><path d="M0 290L0 585L392 323Z" fill="#161b2a" stroke="#161b2a"></path><path d="M0 0L0 290L392 323Z" fill="#1e2742" stroke="#1e2742"></path><path d="M820 900L1220 571L806 579Z" fill="#181d2f" stroke="#181d2f"></path><path d="M810 303L1210 0L776 0Z" fill="#151825" stroke="#151825"></path><path d="M1220 571L1217 267L810 303Z" fill="#212c4c" stroke="#212c4c"></path><path d="M1217 267L1210 0L810 303Z" fill="#192033" stroke="#192033"></path><path d="M428 0L0 0L392 323Z" fill="#151825" stroke="#151825"></path><path d="M0 585L0 900L409 900Z" fill="#192033" stroke="#192033"></path><path d="M820 900L1229 900L1220 571Z" fill="#151825" stroke="#151825"></path><path d="M1220 571L1621 306L1217 267Z" fill="#212c4c" stroke="#212c4c"></path><path d="M1620 602L1621 306L1220 571Z" fill="#192033" stroke="#192033"></path><path d="M1217 267L1571 0L1210 0Z" fill="#212c4c" stroke="#212c4c"></path><path d="M1229 900L1620 602L1220 571Z" fill="#161b2a" stroke="#161b2a"></path><path d="M1621 306L1571 0L1217 267Z" fill="#212c4c" stroke="#212c4c"></path><path d="M1229 900L1597 900L1620 602Z" fill="#1e2742" stroke="#1e2742"></path><path d="M2000 632L1621 306L1620 602Z" fill="#212c4c" stroke="#212c4c"></path><path d="M2000 632L2000 276L1621 306Z" fill="#151825" stroke="#151825"></path><path d="M1621 306L2000 0L1571 0Z" fill="#131621" stroke="#131621"></path><path d="M1597 900L2000 632L1620 602Z" fill="#232e51" stroke="#232e51"></path><path d="M2000 276L2000 0L1621 306Z" fill="#151825" stroke="#151825"></path><path d="M1597 900L2000 900L2000 632Z" fill="#202947" stroke="#202947"></path></g></svg>