<svg id="visual" viewBox="0 0 900 600" width="900" height="600" xmlns="http://www.w3.org/2000/svg" xmlns:xlink="http://www.w3.org/1999/xlink" version="1.1"><g stroke-width="1" stroke-linejoin="bevel"><path d="M474 279L567.5 260L480 219Z" fill="#333f51" stroke="#333f51"></path><path d="M567.5 260L587.5 192L480 219Z" fill="#325277" stroke="#325277"></path><path d="M474 279L561.5 369L567.5 260Z" fill="#2b6092" stroke="#2b6092"></path><path d="M567.5 260L665 263L587.5 192Z" fill="#2f5984" stroke="#2f5984"></path><path d="M561.5 369L665 263L567.5 260Z" fill="#2d2d2d" stroke="#2d2d2d"></path><path d="M516.5 84L465 106L480 219Z" fill="#325277" stroke="#325277"></path><path d="M480 219L343.5 213L474 279Z" fill="#24669f" stroke="#24669f"></path><path d="M587.5 192L516.5 84L480 219Z" fill="#2d2d2d" stroke="#2d2d2d"></path><path d="M571.5 0L516.5 84L693 59Z" fill="#303339" stroke="#303339"></path><path d="M465 106L343.5 213L480 219Z" fill="#24669f" stroke="#24669f"></path><path d="M474 279L403 391L561.5 369Z" fill="#325277" stroke="#325277"></path><path d="M317.5 295L403 391L474 279Z" fill="#313945" stroke="#313945"></path><path d="M343.5 213L317.5 295L474 279Z" fill="#196dad" stroke="#196dad"></path><path d="M665 263L711 182L587.5 192Z" fill="#303339" stroke="#303339"></path><path d="M568.5 470L648 418L561.5 369Z" fill="#2f5984" stroke="#2f5984"></path><path d="M561.5 369L648 418L665 263Z" fill="#196dad" stroke="#196dad"></path><path d="M665 263L769.5 213L711 182Z" fill="#334c6a" stroke="#334c6a"></path><path d="M317.5 295L360.5 406L403 391Z" fill="#303339" stroke="#303339"></path><path d="M470 489L568.5 470L561.5 369Z" fill="#2f5984" stroke="#2f5984"></path><path d="M470 489L561.5 369L403 391Z" fill="#333f51" stroke="#333f51"></path><path d="M360.5 406L470 489L403 391Z" fill="#303339" stroke="#303339"></path><path d="M465 106L336.5 86L343.5 213Z" fill="#325277" stroke="#325277"></path><path d="M343.5 213L195 270L317.5 295Z" fill="#333f51" stroke="#333f51"></path><path d="M447 0L336.5 86L465 106Z" fill="#334c6a" stroke="#334c6a"></path><path d="M823.5 297L769.5 213L665 263Z" fill="#313945" stroke="#313945"></path><path d="M693 59L587.5 192L711 182Z" fill="#333f51" stroke="#333f51"></path><path d="M693 59L516.5 84L587.5 192Z" fill="#334c6a" stroke="#334c6a"></path><path d="M516.5 84L447 0L465 106Z" fill="#2b6092" stroke="#2b6092"></path><path d="M792.5 70L693 59L711 182Z" fill="#303339" stroke="#303339"></path><path d="M571.5 0L447 0L516.5 84Z" fill="#2d2d2d" stroke="#2d2d2d"></path><path d="M669 512L740.5 440L648 418Z" fill="#334c6a" stroke="#334c6a"></path><path d="M648 418L740.5 440L665 263Z" fill="#196dad" stroke="#196dad"></path><path d="M669 512L648 418L568.5 470Z" fill="#303339" stroke="#303339"></path><path d="M693 59L665 0L571.5 0Z" fill="#33465d" stroke="#33465d"></path><path d="M743.5 0L665 0L693 59Z" fill="#303339" stroke="#303339"></path><path d="M539.5 600L669 512L568.5 470Z" fill="#333f51" stroke="#333f51"></path><path d="M360.5 406L317.5 486L470 489Z" fill="#334c6a" stroke="#334c6a"></path><path d="M470 489L539.5 600L568.5 470Z" fill="#303339" stroke="#303339"></path><path d="M234 419L317.5 486L360.5 406Z" fill="#334c6a" stroke="#334c6a"></path><path d="M740.5 440L823.5 297L665 263Z" fill="#333f51" stroke="#333f51"></path><path d="M769.5 213L792.5 70L711 182Z" fill="#196dad" stroke="#196dad"></path><path d="M202 178L195 270L343.5 213Z" fill="#333f51" stroke="#333f51"></path><path d="M317.5 295L234 419L360.5 406Z" fill="#24669f" stroke="#24669f"></path><path d="M184 97L202 178L336.5 86Z" fill="#196dad" stroke="#196dad"></path><path d="M336.5 86L202 178L343.5 213Z" fill="#313945" stroke="#313945"></path><path d="M195 270L234 419L317.5 295Z" fill="#2f5984" stroke="#2f5984"></path><path d="M900 111L792.5 70L769.5 213Z" fill="#2d2d2d" stroke="#2d2d2d"></path><path d="M447 0L300.5 0L336.5 86Z" fill="#2f5984" stroke="#2f5984"></path><path d="M792.5 70L743.5 0L693 59Z" fill="#2d2d2d" stroke="#2d2d2d"></path><path d="M440 600L539.5 600L470 489Z" fill="#2f5984" stroke="#2f5984"></path><path d="M365.5 600L470 489L317.5 486Z" fill="#2b6092" stroke="#2b6092"></path><path d="M365.5 600L440 600L470 489Z" fill="#313945" stroke="#313945"></path><path d="M249 0L184 97L336.5 86Z" fill="#334c6a" stroke="#334c6a"></path><path d="M121.5 185L136.5 336L195 270Z" fill="#33465d" stroke="#33465d"></path><path d="M300.5 0L249 0L336.5 86Z" fill="#33465d" stroke="#33465d"></path><path d="M718 600L783.5 520L669 512Z" fill="#334c6a" stroke="#334c6a"></path><path d="M669 512L783.5 520L740.5 440Z" fill="#2b6092" stroke="#2b6092"></path><path d="M900 398L900 306L823.5 297Z" fill="#24669f" stroke="#24669f"></path><path d="M250 534L365.5 600L317.5 486Z" fill="#334c6a" stroke="#334c6a"></path><path d="M823.5 297L900 210L769.5 213Z" fill="#2f5984" stroke="#2f5984"></path><path d="M792.5 70L900 0L743.5 0Z" fill="#2f5984" stroke="#2f5984"></path><path d="M900 306L900 210L823.5 297Z" fill="#24669f" stroke="#24669f"></path><path d="M900 398L823.5 297L740.5 440Z" fill="#33465d" stroke="#33465d"></path><path d="M234 419L250 534L317.5 486Z" fill="#2b6092" stroke="#2b6092"></path><path d="M194 600L250 534L96.5 502Z" fill="#2d2d2d" stroke="#2d2d2d"></path><path d="M121.5 185L195 270L202 178Z" fill="#325277" stroke="#325277"></path><path d="M195 270L136.5 336L234 419Z" fill="#2f5984" stroke="#2f5984"></path><path d="M539.5 600L718 600L669 512Z" fill="#303339" stroke="#303339"></path><path d="M107.5 116L121.5 185L184 97Z" fill="#24669f" stroke="#24669f"></path><path d="M184 97L121.5 185L202 178Z" fill="#2b6092" stroke="#2b6092"></path><path d="M900 210L900 111L769.5 213Z" fill="#196dad" stroke="#196dad"></path><path d="M900 479L900 398L740.5 440Z" fill="#334c6a" stroke="#334c6a"></path><path d="M900 479L740.5 440L783.5 520Z" fill="#24669f" stroke="#24669f"></path><path d="M718 600L767.5 600L783.5 520Z" fill="#2b6092" stroke="#2b6092"></path><path d="M76.5 0L107.5 116L184 97Z" fill="#24669f" stroke="#24669f"></path><path d="M0 279L71.5 372L136.5 336Z" fill="#2b6092" stroke="#2b6092"></path><path d="M900 600L900 479L783.5 520Z" fill="#2f5984" stroke="#2f5984"></path><path d="M900 111L900 0L792.5 70Z" fill="#313945" stroke="#313945"></path><path d="M0 279L136.5 336L121.5 185Z" fill="#303339" stroke="#303339"></path><path d="M136.5 336L96.5 502L234 419Z" fill="#196dad" stroke="#196dad"></path><path d="M96.5 502L250 534L234 419Z" fill="#333f51" stroke="#333f51"></path><path d="M250 534L194 600L365.5 600Z" fill="#2f5984" stroke="#2f5984"></path><path d="M71.5 372L96.5 502L136.5 336Z" fill="#303339" stroke="#303339"></path><path d="M249 0L76.5 0L184 97Z" fill="#2d2d2d" stroke="#2d2d2d"></path><path d="M0 210L0 279L121.5 185Z" fill="#33465d" stroke="#33465d"></path><path d="M767.5 600L900 600L783.5 520Z" fill="#333f51" stroke="#333f51"></path><path d="M0 210L121.5 185L0 123Z" fill="#2f5984" stroke="#2f5984"></path><path d="M71.5 372L0 424L96.5 502Z" fill="#325277" stroke="#325277"></path><path d="M0 123L121.5 185L107.5 116Z" fill="#2f5984" stroke="#2f5984"></path><path d="M0 600L128.5 600L96.5 502Z" fill="#313945" stroke="#313945"></path><path d="M96.5 502L128.5 600L194 600Z" fill="#334c6a" stroke="#334c6a"></path><path d="M76.5 0L0 123L107.5 116Z" fill="#334c6a" stroke="#334c6a"></path><path d="M0 279L0 424L71.5 372Z" fill="#325277" stroke="#325277"></path><path d="M0 424L0 506L96.5 502Z" fill="#33465d" stroke="#33465d"></path><path d="M76.5 0L0 0L0 123Z" fill="#33465d" stroke="#33465d"></path><path d="M0 506L0 600L96.5 502Z" fill="#33465d" stroke="#33465d"></path></g></svg>