<svg id="visual" viewBox="0 0 1080 900" width="1080" height="900" xmlns="http://www.w3.org/2000/svg" xmlns:xlink="http://www.w3.org/1999/xlink" version="1.1"><path d="M0 603L25.7 602.3C51.3 601.7 102.7 600.3 154.2 610.5C205.7 620.7 257.3 642.3 308.8 632.8C360.3 623.3 411.7 582.7 463 570.7C514.3 558.7 565.7 575.3 617 589.3C668.3 603.3 719.7 614.7 771.2 616.7C822.7 618.7 874.3 611.3 925.8 616.7C977.3 622 1028.7 640 1054.3 649L1080 658L1080 901L1054.3 901C1028.7 901 977.3 901 925.8 901C874.3 901 822.7 901 771.2 901C719.7 901 668.3 901 617 901C565.7 901 514.3 901 463 901C411.7 901 360.3 901 308.8 901C257.3 901 205.7 901 154.2 901C102.7 901 51.3 901 25.7 901L0 901Z" fill="#175151"></path><path d="M0 638L25.7 634.7C51.3 631.3 102.7 624.7 154.2 623.5C205.7 622.3 257.3 626.7 308.8 641C360.3 655.3 411.7 679.7 463 689.8C514.3 700 565.7 696 617 691.2C668.3 686.3 719.7 680.7 771.2 667.8C822.7 655 874.3 635 925.8 623C977.3 611 1028.7 607 1054.3 605L1080 603L1080 901L1054.3 901C1028.7 901 977.3 901 925.8 901C874.3 901 822.7 901 771.2 901C719.7 901 668.3 901 617 901C565.7 901 514.3 901 463 901C411.7 901 360.3 901 308.8 901C257.3 901 205.7 901 154.2 901C102.7 901 51.3 901 25.7 901L0 901Z" fill="#1c7270"></path><path d="M0 694L25.7 692.3C51.3 690.7 102.7 687.3 154.2 696C205.7 704.7 257.3 725.3 308.8 733C360.3 740.7 411.7 735.3 463 722.5C514.3 709.7 565.7 689.3 617 677.7C668.3 666 719.7 663 771.2 664.8C822.7 666.7 874.3 673.3 925.8 678.2C977.3 683 1028.7 686 1054.3 687.5L1080 689L1080 901L1054.3 901C1028.7 901 977.3 901 925.8 901C874.3 901 822.7 901 771.2 901C719.7 901 668.3 901 617 901C565.7 901 514.3 901 463 901C411.7 901 360.3 901 308.8 901C257.3 901 205.7 901 154.2 901C102.7 901 51.3 901 25.7 901L0 901Z" fill="#229490"></path><path d="M0 793L25.7 793C51.3 793 102.7 793 154.2 784.7C205.7 776.3 257.3 759.7 308.8 752.7C360.3 745.7 411.7 748.3 463 748.7C514.3 749 565.7 747 617 751.2C668.3 755.3 719.7 765.7 771.2 763.2C822.7 760.7 874.3 745.3 925.8 741.5C977.3 737.7 1028.7 745.3 1054.3 749.2L1080 753L1080 901L1054.3 901C1028.7 901 977.3 901 925.8 901C874.3 901 822.7 901 771.2 901C719.7 901 668.3 901 617 901C565.7 901 514.3 901 463 901C411.7 901 360.3 901 308.8 901C257.3 901 205.7 901 154.2 901C102.7 901 51.3 901 25.7 901L0 901Z" fill="#29b8b0"></path><path d="M0 842L25.7 842.5C51.3 843 102.7 844 154.2 839.3C205.7 834.7 257.3 824.3 308.8 820.3C360.3 816.3 411.7 818.7 463 825.3C514.3 832 565.7 843 617 845.5C668.3 848 719.7 842 771.2 840.2C822.7 838.3 874.3 840.7 925.8 837.2C977.3 833.7 1028.7 824.3 1054.3 819.7L1080 815L1080 901L1054.3 901C1028.7 901 977.3 901 925.8 901C874.3 901 822.7 901 771.2 901C719.7 901 668.3 901 617 901C565.7 901 514.3 901 463 901C411.7 901 360.3 901 308.8 901C257.3 901 205.7 901 154.2 901C102.7 901 51.3 901 25.7 901L0 901Z" fill="#34decf"></path></svg>