<svg id="visual" viewBox="0 0 2000 900" width="2000" height="900" xmlns="http://www.w3.org/2000/svg" xmlns:xlink="http://www.w3.org/1999/xlink" version="1.1"><path d="M0 363L33.3 374.3C66.7 385.7 133.3 408.3 200 414.7C266.7 421 333.3 411 400 412.3C466.7 413.7 533.3 426.3 600 421.3C666.7 416.3 733.3 393.7 800 379.3C866.7 365 933.3 359 1000 362.5C1066.7 366 1133.3 379 1200 391.5C1266.7 404 1333.3 416 1400 417.2C1466.7 418.3 1533.3 408.7 1600 402.8C1666.7 397 1733.3 395 1800 390C1866.7 385 1933.3 377 1966.7 373L2000 369L2000 901L1966.7 901C1933.3 901 1866.7 901 1800 901C1733.3 901 1666.7 901 1600 901C1533.3 901 1466.7 901 1400 901C1333.3 901 1266.7 901 1200 901C1133.3 901 1066.7 901 1000 901C933.3 901 866.7 901 800 901C733.3 901 666.7 901 600 901C533.3 901 466.7 901 400 901C333.3 901 266.7 901 200 901C133.3 901 66.7 901 33.3 901L0 901Z" fill="#7adbd3"></path><path d="M0 515L33.3 514.8C66.7 514.7 133.3 514.3 200 503.2C266.7 492 333.3 470 400 460.5C466.7 451 533.3 454 600 458.7C666.7 463.3 733.3 469.7 800 480C866.7 490.3 933.3 504.7 1000 500.5C1066.7 496.3 1133.3 473.7 1200 470.3C1266.7 467 1333.3 483 1400 488.5C1466.7 494 1533.3 489 1600 485C1666.7 481 1733.3 478 1800 487.3C1866.7 496.7 1933.3 518.3 1966.7 529.2L2000 540L2000 901L1966.7 901C1933.3 901 1866.7 901 1800 901C1733.3 901 1666.7 901 1600 901C1533.3 901 1466.7 901 1400 901C1333.3 901 1266.7 901 1200 901C1133.3 901 1066.7 901 1000 901C933.3 901 866.7 901 800 901C733.3 901 666.7 901 600 901C533.3 901 466.7 901 400 901C333.3 901 266.7 901 200 901C133.3 901 66.7 901 33.3 901L0 901Z" fill="#67c5bf"></path><path d="M0 580L33.3 581.5C66.7 583 133.3 586 200 582.5C266.7 579 333.3 569 400 574.2C466.7 579.3 533.3 599.7 600 606C666.7 612.3 733.3 604.7 800 593.3C866.7 582 933.3 567 1000 569.7C1066.7 572.3 1133.3 592.7 1200 604.7C1266.7 616.7 1333.3 620.3 1400 610.7C1466.7 601 1533.3 578 1600 572.5C1666.7 567 1733.3 579 1800 587.8C1866.7 596.7 1933.3 602.3 1966.7 605.2L2000 608L2000 901L1966.7 901C1933.3 901 1866.7 901 1800 901C1733.3 901 1666.7 901 1600 901C1533.3 901 1466.7 901 1400 901C1333.3 901 1266.7 901 1200 901C1133.3 901 1066.7 901 1000 901C933.3 901 866.7 901 800 901C733.3 901 666.7 901 600 901C533.3 901 466.7 901 400 901C333.3 901 266.7 901 200 901C133.3 901 66.7 901 33.3 901L0 901Z" fill="#54b0ac"></path><path d="M0 698L33.3 693.3C66.7 688.7 133.3 679.3 200 681.5C266.7 683.7 333.3 697.3 400 697.5C466.7 697.7 533.3 684.3 600 682.3C666.7 680.3 733.3 689.7 800 699.8C866.7 710 933.3 721 1000 721.2C1066.7 721.3 1133.3 710.7 1200 698.3C1266.7 686 1333.3 672 1400 666C1466.7 660 1533.3 662 1600 674.3C1666.7 686.7 1733.3 709.3 1800 716.3C1866.7 723.3 1933.3 714.7 1966.7 710.3L2000 706L2000 901L1966.7 901C1933.3 901 1866.7 901 1800 901C1733.3 901 1666.7 901 1600 901C1533.3 901 1466.7 901 1400 901C1333.3 901 1266.7 901 1200 901C1133.3 901 1066.7 901 1000 901C933.3 901 866.7 901 800 901C733.3 901 666.7 901 600 901C533.3 901 466.7 901 400 901C333.3 901 266.7 901 200 901C133.3 901 66.7 901 33.3 901L0 901Z" fill="#419b99"></path><path d="M0 832L33.3 829.3C66.7 826.7 133.3 821.3 200 814.3C266.7 807.3 333.3 798.7 400 799.5C466.7 800.3 533.3 810.7 600 809C666.7 807.3 733.3 793.7 800 789.5C866.7 785.3 933.3 790.7 1000 793.2C1066.7 795.7 1133.3 795.3 1200 798C1266.7 800.7 1333.3 806.3 1400 810C1466.7 813.7 1533.3 815.3 1600 814.3C1666.7 813.3 1733.3 809.7 1800 801.2C1866.7 792.7 1933.3 779.3 1966.7 772.7L2000 766L2000 901L1966.7 901C1933.3 901 1866.7 901 1800 901C1733.3 901 1666.7 901 1600 901C1533.3 901 1466.7 901 1400 901C1333.3 901 1266.7 901 1200 901C1133.3 901 1066.7 901 1000 901C933.3 901 866.7 901 800 901C733.3 901 666.7 901 600 901C533.3 901 466.7 901 400 901C333.3 901 266.7 901 200 901C133.3 901 66.7 901 33.3 901L0 901Z" fill="#2e8787"></path></svg>