<svg id="visual" viewBox="0 0 900 600" width="900" height="600" xmlns="http://www.w3.org/2000/svg" xmlns:xlink="http://www.w3.org/1999/xlink" version="1.1"><path d="M0 441L21.5 439.8C43 438.7 86 436.3 128.8 427.3C171.7 418.3 214.3 402.7 257.2 404C300 405.3 343 423.7 385.8 417.7C428.7 411.7 471.3 381.3 514.2 369.8C557 358.3 600 365.7 642.8 367.5C685.7 369.3 728.3 365.7 771.2 376.3C814 387 857 412 878.5 424.5L900 437L900 601L878.5 601C857 601 814 601 771.2 601C728.3 601 685.7 601 642.8 601C600 601 557 601 514.2 601C471.3 601 428.7 601 385.8 601C343 601 300 601 257.2 601C214.3 601 171.7 601 128.8 601C86 601 43 601 21.5 601L0 601Z" fill="#34decf"></path><path d="M0 447L21.5 444C43 441 86 435 128.8 427.7C171.7 420.3 214.3 411.7 257.2 412.3C300 413 343 423 385.8 433.2C428.7 443.3 471.3 453.7 514.2 454C557 454.3 600 444.7 642.8 439.2C685.7 433.7 728.3 432.3 771.2 425.3C814 418.3 857 405.7 878.5 399.3L900 393L900 601L878.5 601C857 601 814 601 771.2 601C728.3 601 685.7 601 642.8 601C600 601 557 601 514.2 601C471.3 601 428.7 601 385.8 601C343 601 300 601 257.2 601C214.3 601 171.7 601 128.8 601C86 601 43 601 21.5 601L0 601Z" fill="#29b8b0"></path><path d="M0 495L21.5 495.2C43 495.3 86 495.7 128.8 496.5C171.7 497.3 214.3 498.7 257.2 500.3C300 502 343 504 385.8 502.2C428.7 500.3 471.3 494.7 514.2 484.3C557 474 600 459 642.8 455.3C685.7 451.7 728.3 459.3 771.2 460.3C814 461.3 857 455.7 878.5 452.8L900 450L900 601L878.5 601C857 601 814 601 771.2 601C728.3 601 685.7 601 642.8 601C600 601 557 601 514.2 601C471.3 601 428.7 601 385.8 601C343 601 300 601 257.2 601C214.3 601 171.7 601 128.8 601C86 601 43 601 21.5 601L0 601Z" fill="#229490"></path><path d="M0 515L21.5 519.7C43 524.3 86 533.7 128.8 534.7C171.7 535.7 214.3 528.3 257.2 522.3C300 516.3 343 511.7 385.8 510.5C428.7 509.3 471.3 511.7 514.2 515.8C557 520 600 526 642.8 523.3C685.7 520.7 728.3 509.3 771.2 502.3C814 495.3 857 492.7 878.5 491.3L900 490L900 601L878.5 601C857 601 814 601 771.2 601C728.3 601 685.7 601 642.8 601C600 601 557 601 514.2 601C471.3 601 428.7 601 385.8 601C343 601 300 601 257.2 601C214.3 601 171.7 601 128.8 601C86 601 43 601 21.5 601L0 601Z" fill="#1c7270"></path><path d="M0 546L21.5 546.8C43 547.7 86 549.3 128.8 553.7C171.7 558 214.3 565 257.2 568C300 571 343 570 385.8 568.5C428.7 567 471.3 565 514.2 564C557 563 600 563 642.8 560.5C685.7 558 728.3 553 771.2 551.3C814 549.7 857 551.3 878.5 552.2L900 553L900 601L878.5 601C857 601 814 601 771.2 601C728.3 601 685.7 601 642.8 601C600 601 557 601 514.2 601C471.3 601 428.7 601 385.8 601C343 601 300 601 257.2 601C214.3 601 171.7 601 128.8 601C86 601 43 601 21.5 601L0 601Z" fill="#175151"></path></svg>