<svg id="visual" viewBox="0 0 900 600" width="900" height="600" xmlns="http://www.w3.org/2000/svg" xmlns:xlink="http://www.w3.org/1999/xlink" version="1.1"><path d="M0 388L21.5 390.3C43 392.7 86 397.3 128.8 399C171.7 400.7 214.3 399.3 257.2 404.2C300 409 343 420 385.8 426.2C428.7 432.3 471.3 433.7 514.2 435.8C557 438 600 441 642.8 440.2C685.7 439.3 728.3 434.7 771.2 418.8C814 403 857 376 878.5 362.5L900 349L900 601L878.5 601C857 601 814 601 771.2 601C728.3 601 685.7 601 642.8 601C600 601 557 601 514.2 601C471.3 601 428.7 601 385.8 601C343 601 300 601 257.2 601C214.3 601 171.7 601 128.8 601C86 601 43 601 21.5 601L0 601Z" fill="#34decf"></path><path d="M0 465L21.5 466C43 467 86 469 128.8 461.7C171.7 454.3 214.3 437.7 257.2 437.3C300 437 343 453 385.8 448.8C428.7 444.7 471.3 420.3 514.2 419C557 417.7 600 439.3 642.8 441.7C685.7 444 728.3 427 771.2 417C814 407 857 404 878.5 402.5L900 401L900 601L878.5 601C857 601 814 601 771.2 601C728.3 601 685.7 601 642.8 601C600 601 557 601 514.2 601C471.3 601 428.7 601 385.8 601C343 601 300 601 257.2 601C214.3 601 171.7 601 128.8 601C86 601 43 601 21.5 601L0 601Z" fill="#29b8b0"></path><path d="M0 495L21.5 497.3C43 499.7 86 504.3 128.8 494.8C171.7 485.3 214.3 461.7 257.2 457.3C300 453 343 468 385.8 476.8C428.7 485.7 471.3 488.3 514.2 488.5C557 488.7 600 486.3 642.8 489.7C685.7 493 728.3 502 771.2 496.7C814 491.3 857 471.7 878.5 461.8L900 452L900 601L878.5 601C857 601 814 601 771.2 601C728.3 601 685.7 601 642.8 601C600 601 557 601 514.2 601C471.3 601 428.7 601 385.8 601C343 601 300 601 257.2 601C214.3 601 171.7 601 128.8 601C86 601 43 601 21.5 601L0 601Z" fill="#229490"></path><path d="M0 514L21.5 518C43 522 86 530 128.8 530.2C171.7 530.3 214.3 522.7 257.2 521.5C300 520.3 343 525.7 385.8 524C428.7 522.3 471.3 513.7 514.2 509.5C557 505.3 600 505.7 642.8 502.2C685.7 498.7 728.3 491.3 771.2 493.2C814 495 857 506 878.5 511.5L900 517L900 601L878.5 601C857 601 814 601 771.2 601C728.3 601 685.7 601 642.8 601C600 601 557 601 514.2 601C471.3 601 428.7 601 385.8 601C343 601 300 601 257.2 601C214.3 601 171.7 601 128.8 601C86 601 43 601 21.5 601L0 601Z" fill="#1c7270"></path><path d="M0 547L21.5 549.3C43 551.7 86 556.3 128.8 560.5C171.7 564.7 214.3 568.3 257.2 568C300 567.7 343 563.3 385.8 556C428.7 548.7 471.3 538.3 514.2 536.8C557 535.3 600 542.7 642.8 542.7C685.7 542.7 728.3 535.3 771.2 532.8C814 530.3 857 532.7 878.5 533.8L900 535L900 601L878.5 601C857 601 814 601 771.2 601C728.3 601 685.7 601 642.8 601C600 601 557 601 514.2 601C471.3 601 428.7 601 385.8 601C343 601 300 601 257.2 601C214.3 601 171.7 601 128.8 601C86 601 43 601 21.5 601L0 601Z" fill="#175151"></path></svg>