<svg id="visual" viewBox="0 0 2000 900" width="2000" height="900" xmlns="http://www.w3.org/2000/svg" xmlns:xlink="http://www.w3.org/1999/xlink" version="1.1"><path d="M0 416L47.7 420.3C95.3 424.7 190.7 433.3 285.8 436.7C381 440 476 438 571.2 436C666.3 434 761.7 432 857 434.7C952.3 437.3 1047.7 444.7 1143 439.5C1238.3 434.3 1333.7 416.7 1428.8 412.8C1524 409 1619 419 1714.2 423.7C1809.3 428.3 1904.7 427.7 1952.3 427.3L2000 427L2000 901L1952.3 901C1904.7 901 1809.3 901 1714.2 901C1619 901 1524 901 1428.8 901C1333.7 901 1238.3 901 1143 901C1047.7 901 952.3 901 857 901C761.7 901 666.3 901 571.2 901C476 901 381 901 285.8 901C190.7 901 95.3 901 47.7 901L0 901Z" fill="#bcfff9"></path><path d="M0 570L47.7 562.7C95.3 555.3 190.7 540.7 285.8 543.7C381 546.7 476 567.3 571.2 574.2C666.3 581 761.7 574 857 563.2C952.3 552.3 1047.7 537.7 1143 536.5C1238.3 535.3 1333.7 547.7 1428.8 547.8C1524 548 1619 536 1714.2 528.5C1809.3 521 1904.7 518 1952.3 516.5L2000 515L2000 901L1952.3 901C1904.7 901 1809.3 901 1714.2 901C1619 901 1524 901 1428.8 901C1333.7 901 1238.3 901 1143 901C1047.7 901 952.3 901 857 901C761.7 901 666.3 901 571.2 901C476 901 381 901 285.8 901C190.7 901 95.3 901 47.7 901L0 901Z" fill="#8dd9d5"></path><path d="M0 646L47.7 647.2C95.3 648.3 190.7 650.7 285.8 659.5C381 668.3 476 683.7 571.2 688.3C666.3 693 761.7 687 857 671.7C952.3 656.3 1047.7 631.7 1143 634.5C1238.3 637.3 1333.7 667.7 1428.8 677.3C1524 687 1619 676 1714.2 660.3C1809.3 644.7 1904.7 624.3 1952.3 614.2L2000 604L2000 901L1952.3 901C1904.7 901 1809.3 901 1714.2 901C1619 901 1524 901 1428.8 901C1333.7 901 1238.3 901 1143 901C1047.7 901 952.3 901 857 901C761.7 901 666.3 901 571.2 901C476 901 381 901 285.8 901C190.7 901 95.3 901 47.7 901L0 901Z" fill="#5eb5b2"></path><path d="M0 743L47.7 747.8C95.3 752.7 190.7 762.3 285.8 767.5C381 772.7 476 773.3 571.2 781.2C666.3 789 761.7 804 857 798C952.3 792 1047.7 765 1143 751.2C1238.3 737.3 1333.7 736.7 1428.8 734.8C1524 733 1619 730 1714.2 733.5C1809.3 737 1904.7 747 1952.3 752L2000 757L2000 901L1952.3 901C1904.7 901 1809.3 901 1714.2 901C1619 901 1524 901 1428.8 901C1333.7 901 1238.3 901 1143 901C1047.7 901 952.3 901 857 901C761.7 901 666.3 901 571.2 901C476 901 381 901 285.8 901C190.7 901 95.3 901 47.7 901L0 901Z" fill="#259191"></path></svg>